<svg xmlns="http://www.w3.org/2000/svg" xmlns:xlink="http://www.w3.org/1999/xlink" id="Layer_1" x="0px" y="0px" viewBox="0 0 664.2 167.3" xml:space="preserve"><g>	<g>		<path fill="#00295D" d="M196.6,147.3v-3.9h4.9v-33.3h-4.9v-3.9H212c4.6,0,8.4,1,11.4,3c3,1.9,4.5,5.2,4.5,9.7   c0,4.4-1.3,7.5-3.8,9.4c-2.6,1.8-5.4,3-8.5,3.4c-0.6,0.1-1.2,0.1-1.9,0.2c-0.6,0-1.2,0.1-1.9,0.1H207v11.5h5.2v3.9H196.6z    M207,127.9h4.5c4.2,0,7-0.9,8.6-2.7c1.5-1.8,2.3-3.7,2.4-5.8c0-0.1,0-0.2,0-0.3s0-0.2,0-0.3c0-3.1-0.9-5.3-2.8-6.7   c-1.8-1.4-4.9-2.1-9.3-2.1H207V127.9z"></path>		<path fill="#00295D" d="M235.8,135.8c0.2,2.5,1.2,4.5,2.8,5.9c1.7,1.4,3.4,2.2,5.4,2.4c0.1,0,0.2,0,0.3,0c0.1,0,0.2,0,0.3,0   c2,0,3.8-0.4,5.3-1.2c1.5-0.8,2.7-1.8,3.4-3.1l4.8-0.1c-0.7,2.5-2.4,4.6-5.1,6c-2.7,1.5-5.5,2.2-8.6,2.2c-3.6,0-6.8-1.3-9.5-3.8   c-2.7-2.6-4-5.8-4-9.7c0-4,1.4-7.2,4.1-9.9c2.7-2.6,6-4,9.8-4c4.1,0,7.5,1.5,10,4.4c2.5,3,3.8,6.6,3.8,10.9H235.8z M253.8,132   c0-2.1-0.9-3.8-2.8-5.4c-1.8-1.5-3.9-2.3-6.2-2.3c-2.2,0-4.2,0.7-6,2.2c-1.7,1.5-2.7,3.3-3,5.4H253.8z"></path>		<path fill="#00295D" d="M268.3,144.7v2.6h-3.8v-8.6h3.8c0.5,1.5,1.2,2.6,2.4,3.4c1.1,0.8,2.3,1.3,3.6,1.6c0.4,0.1,0.8,0.2,1.3,0.2   c0.4,0,0.8,0.1,1.2,0.1c0.3,0,0.7,0,1.2,0c0.4,0,0.9-0.1,1.3-0.1c1-0.2,1.9-0.5,2.7-1c0.8-0.5,1.2-1.4,1.2-2.7   c0-1.4-0.7-2.3-2.1-2.7c-1.4-0.4-3-0.7-4.8-0.9c-0.4,0-0.8-0.1-1.2-0.1c-0.4-0.1-0.8-0.1-1.2-0.1c-2.3-0.3-4.5-1-6.4-2.1   c-2-1-2.9-3.1-2.9-6.3c0-2.7,1-4.7,3-5.8c2-1.2,4.2-1.7,6.6-1.7c1.4,0,2.9,0.3,4.2,0.8c1.4,0.5,2.6,1.3,3.7,2.2V121h3.8v8h-4   c-0.2-0.7-0.6-1.4-1-2c-0.4-0.6-1-1.1-1.6-1.5c-0.6-0.4-1.3-0.7-2-0.9c-0.7-0.2-1.4-0.3-2.2-0.3c-1.7,0-3.1,0.2-4.3,0.7   c-1.2,0.5-1.8,1.4-1.8,2.9c0,1.4,0.7,2.3,2.1,2.8c1.4,0.5,3.1,0.8,5,1.1c0.3,0,0.7,0.1,1.1,0.1c0.4,0.1,0.7,0.1,1.1,0.1   c2.4,0.4,4.5,1.1,6.4,2c1.9,1,2.9,2.9,2.9,5.7c0,2.9-1.1,5-3.2,6.2c-2.1,1.2-4.5,1.8-7.1,1.8c-0.3,0-0.7,0-1,0c-0.3,0-0.7,0-1-0.1   c-1.3-0.1-2.6-0.4-3.9-0.9C270.2,146.5,269.1,145.8,268.3,144.7L268.3,144.7z"></path>		<path fill="#00295D" d="M319.4,155.4h4.4v3.8h-14.3v-3.8h4.9v-11.6h-0.1c-1,1.3-2.3,2.3-3.9,3c-1.6,0.7-3.4,1.1-5.5,1.1   c-0.3,0-0.5,0-0.8,0c-0.3,0-0.5,0-0.7-0.1c-2.7-0.4-5.2-1.7-7.4-4.1c-2.3-2.4-3.4-5.5-3.4-9.3c0-4.1,1.2-7.5,3.7-10   c2.5-2.5,5.4-3.8,8.6-3.8c2.2,0,4.2,0.4,5.8,1.1c1.6,0.8,2.9,1.8,3.8,3.2l0.1-0.1V121h9.2v3.8h-4.5V155.4z M299.9,127.2   c-1.5,1.9-2.3,4.2-2.3,7.1c0,2.9,0.8,5.2,2.5,7.1c1.7,1.8,3.7,2.7,6,2.7c2.3,0,4.3-1,5.9-3c1.6-2,2.5-4.2,2.5-6.6c0,0,0-0.1,0-0.1   c0,0,0,0,0-0.1c0-2.9-0.7-5.3-2.2-7.2c-1.5-1.9-3.5-2.8-6.2-2.8C303.5,124.4,301.4,125.3,299.9,127.2z"></path>		<path fill="#00295D" d="M350.5,143.2h-0.1c-1.1,1.5-2.6,2.6-4.3,3.4c-1.7,0.8-3.5,1.2-5.4,1.2c-2.7,0-4.8-0.7-6.2-2   c-1.4-1.3-2.1-3.4-2.1-6.1c0,0,0-0.1,0-0.1c0,0,0-0.1,0-0.1c0,0,0-0.1,0-0.1c0,0,0-0.1,0-0.1v-14.5h-3.8V121h8.7v18.6   c0,1.5,0.5,2.6,1.4,3.3c0.9,0.7,1.9,1,3,1c1.8,0,3.4-0.4,4.7-1.2c1.3-0.8,2.7-1.7,3.9-2.9c0-0.1,0.1-0.1,0.1-0.2   c0.1-0.1,0.1-0.1,0.2-0.1v-14.7H346V121h9.4v22.5h4.2v3.8h-9.1V143.2z"></path>		<path fill="#00295D" d="M364.8,147.3v-3.8h4.7v-18.7h-4.5V121h9.4v22.5h4.4v3.8H364.8z M367.3,109.3h7v5.2h-7V109.3z"></path>		<path fill="#00295D" d="M388.2,144.7v2.6h-3.8v-8.6h3.8c0.5,1.5,1.2,2.6,2.4,3.4c1.1,0.8,2.3,1.3,3.6,1.6c0.4,0.1,0.8,0.2,1.3,0.2   c0.4,0,0.8,0.1,1.2,0.1c0.3,0,0.7,0,1.2,0c0.4,0,0.9-0.1,1.3-0.1c1-0.2,1.9-0.5,2.7-1c0.8-0.5,1.2-1.4,1.2-2.7   c0-1.4-0.7-2.3-2.1-2.7c-1.4-0.4-3-0.7-4.8-0.9c-0.4,0-0.8-0.1-1.2-0.1c-0.4-0.1-0.8-0.1-1.2-0.1c-2.3-0.3-4.5-1-6.4-2.1   c-2-1-2.9-3.1-2.9-6.3c0-2.7,1-4.7,3-5.8c2-1.2,4.2-1.7,6.6-1.7c1.4,0,2.9,0.3,4.2,0.8c1.4,0.5,2.6,1.3,3.7,2.2V121h3.8v8h-4   c-0.2-0.7-0.6-1.4-1-2c-0.4-0.6-1-1.1-1.6-1.5c-0.6-0.4-1.3-0.7-2-0.9c-0.7-0.2-1.4-0.3-2.2-0.3c-1.7,0-3.1,0.2-4.3,0.7   c-1.2,0.5-1.8,1.4-1.8,2.9c0,1.4,0.7,2.3,2.1,2.8c1.4,0.5,3.1,0.8,5,1.1c0.3,0,0.7,0.1,1.1,0.1c0.4,0.1,0.7,0.1,1.1,0.1   c2.4,0.4,4.5,1.1,6.4,2c1.9,1,2.9,2.9,2.9,5.7c0,2.9-1.1,5-3.2,6.2c-2.1,1.2-4.5,1.8-7.1,1.8c-0.3,0-0.7,0-1,0c-0.3,0-0.7,0-1-0.1   c-1.3-0.1-2.6-0.4-3.9-0.9C390.1,146.5,389.1,145.8,388.2,144.7L388.2,144.7z"></path>		<path fill="#00295D" d="M438.9,143.5h4.4v3.8h-8.8v-4h-0.2c-0.8,1.1-1.8,2.1-3.1,2.9c-1.3,0.8-2.7,1.3-4.1,1.5   c-0.3,0.1-0.6,0.1-0.9,0.1c-0.3,0-0.6,0-0.9,0c-4.1,0-7.3-1.3-9.6-4c-2.3-2.7-3.5-5.9-3.5-9.7c0-3.8,1.2-7.1,3.5-9.7   c2.3-2.6,5.5-4,9.6-4c0.3,0,0.6,0,0.9,0c0.3,0,0.6,0.1,0.9,0.1c1.4,0.3,2.8,0.8,4.1,1.6c1.3,0.8,2.3,1.7,3.1,2.8l0.2-0.1v-4h8.8   v3.8h-4.4V143.5z M417.3,134.1c0,2.6,0.7,4.9,2.1,6.9c1.4,2,3.6,3,6.6,3c2.1,0,4.1-0.9,5.9-2.6c1.8-1.7,2.7-4.2,2.7-7.3   c0-3.2-0.9-5.6-2.7-7.3c-1.8-1.7-3.7-2.5-5.9-2.5c-3,0-5.2,1-6.6,3C418,129.5,417.3,131.7,417.3,134.1L417.3,134.1z"></path>	</g>	<g>		<path fill="#00295D" d="M500.7,119c-0.8-2.9-2.4-5.1-4.8-6.5c-2.4-1.5-5-2.2-8-2.2c-4.4,0-8,1.6-10.8,4.8   c-2.8,3.2-4.1,7.1-4.1,11.6s1.4,8.4,4.1,11.8c2.8,3.3,6.4,5,10.8,5c3.5,0,6.3-0.7,8.6-2.2c2.3-1.5,4-3.8,5.3-6.9l5-0.1   c-1.2,4.2-3.4,7.6-6.6,10.2c-3.2,2.6-7.3,3.8-12.2,3.8c-6.1,0-11-2.1-14.8-6.4c-3.8-4.2-5.7-9.3-5.7-15.1c0-5.9,1.9-10.9,5.6-15.1   c3.7-4.2,8.6-6.3,14.6-6.3c0.2,0,0.4,0,0.6,0c0.2,0,0.4,0,0.6,0.1c2.1,0.1,4.1,0.5,6.1,1.2c2,0.7,3.8,1.7,5.4,3.1v-3.5h4.4V119   H500.7z"></path>		<path fill="#00295D" d="M511.4,147.3v-3.8h4.6V110h-4.5v-3.8h9.4v37.3h4.4v3.8H511.4z"></path>		<path fill="#00295D" d="M530.8,147.3v-3.8h4.7v-18.7h-4.5V121h9.4v22.5h4.4v3.8H530.8z M538.2,109.2h6.2l-7.5,8h-3.8L538.2,109.2z   "></path>		<path fill="#00295D" d="M559.1,125c0.8-0.8,1.7-1.6,2.9-2.3c1.1-0.7,2.3-1.3,3.6-1.7c0.5-0.2,1-0.3,1.5-0.4c0.5-0.1,1-0.1,1.5-0.1   c2.1,0,4,0.6,5.6,1.9c1.7,1.3,2.5,3.2,2.5,5.7v15.4h4v3.8h-13.5v-3.8h4.5v-14.3c0-1.3-0.3-2.4-0.9-3.3c-0.6-0.9-1.5-1.3-2.7-1.3   c-1.8,0-3.4,0.4-4.7,1.2c-1.3,0.8-2.7,1.7-3.9,2.9c0,0.1-0.1,0.1-0.1,0.2c-0.1,0.1-0.1,0.1-0.2,0.1v14.5h4.3v3.8h-13.6v-3.8h4.4   v-18.7h-4.4V121h9.3V125z"></path>		<path fill="#00295D" d="M585.9,147.3v-3.8h4.7v-18.7h-4.5V121h9.4v22.5h4.4v3.8H585.9z M588.4,109.3h7v5.2h-7V109.3z"></path>		<path fill="#00295D" d="M624.4,130.1c-0.5-1.7-1.4-3-2.8-4.1c-1.4-1.1-3-1.6-4.8-1.6c-2.3,0-4.3,0.9-5.8,2.9   c-1.6,1.9-2.3,4.2-2.3,7c0,3,0.7,5.4,2.3,7.2c1.5,1.8,3.5,2.7,6,2.7c1.8,0,3.5-0.5,5-1.4c1.5-0.9,2.9-2,4-3.3l2.9,2.6   c-1.5,1.9-3.3,3.3-5.3,4.4c-2,1.1-4.3,1.6-6.9,1.6c-4.2,0-7.4-1.3-9.6-3.9c-2.2-2.6-3.3-5.9-3.3-9.7c0-3.9,1.1-7.1,3.3-9.8   c2.2-2.6,5.4-4,9.6-4c0.4,0,0.8,0,1.2,0.1c0.4,0.1,0.8,0.1,1.2,0.3c1,0.2,1.9,0.6,2.9,1.1c0.9,0.5,1.6,1.2,2.2,1.9l0.1-0.1V121   h3.9v9.1H624.4z"></path>		<path fill="#00295D" d="M659.7,143.5h4.4v3.8h-8.8v-4h-0.2c-0.8,1.1-1.8,2.1-3.1,2.9s-2.7,1.3-4.1,1.5c-0.3,0.1-0.6,0.1-0.9,0.1   c-0.3,0-0.6,0-0.9,0c-4.1,0-7.3-1.3-9.6-4c-2.3-2.7-3.5-5.9-3.5-9.7c0-3.8,1.2-7.1,3.5-9.7c2.3-2.6,5.5-4,9.6-4c0.3,0,0.6,0,0.9,0   c0.3,0,0.6,0.1,0.9,0.1c1.4,0.3,2.8,0.8,4.1,1.6c1.3,0.8,2.3,1.7,3.1,2.8l0.2-0.1v-4h8.8v3.8h-4.4V143.5z M638.1,134.1   c0,2.6,0.7,4.9,2.1,6.9c1.4,2,3.6,3,6.6,3c2.1,0,4.1-0.9,5.9-2.6c1.8-1.7,2.7-4.2,2.7-7.3c0-3.2-0.9-5.6-2.7-7.3   c-1.8-1.7-3.7-2.5-5.9-2.5c-3,0-5.2,1-6.6,3C638.8,129.5,638.1,131.7,638.1,134.1L638.1,134.1z"></path>	</g>	<g>		<path fill="#00295D" d="M263.4,40.7c-0.6-2.4-1.6-4.6-3.1-6.5c-1.5-1.9-3.3-3.5-5.4-4.8c-1.8-1.2-3.8-2.2-6-2.9   c-2.1-0.7-4.3-1.2-6.4-1.3c-0.3,0-0.6,0-0.9,0c-0.3,0-0.5,0-0.8,0c-9.1,0-16.1,3.1-21.1,9.2c-5,6.1-7.5,13.4-7.5,21.7   c0,8.3,2.4,15.5,7.3,21.7c4.9,6.2,12,9.3,21.2,9.3c6.5,0,11.6-1.5,15.4-4.6c3.8-3,6.9-7,9.3-11.8l14.4-0.1   c-2.5,10.5-7.3,18.3-14.3,23.3c-7.1,5-15.3,7.5-24.8,7.5c-12.5,0-23-4.4-31.5-13.1c-8.5-8.7-12.7-19.6-12.7-32.6   c0-13.9,4-24.5,11.9-31.8c7.9-7.3,16.7-11.6,26.2-12.8c1-0.1,1.9-0.2,2.9-0.2c1-0.1,2-0.1,2.9-0.1c0.9,0,2.6,0.1,5.2,0.4   c2.6,0.3,5.3,0.9,8.2,1.9c1.7,0.6,3.3,1.3,5,2.1c1.6,0.8,3.1,1.9,4.4,3.1v-5.7h12.6v28.2H263.4z"></path>		<path fill="#00295D" d="M285.6,99.4V87.6h9.5V24.3h-9.5V12.5h33c8.4,0.1,16.1,2.1,23.2,6.1c7,4,10.5,11.1,10.5,21.5   c0,9.4-2.7,16.1-8.1,20.2s-11.4,6.4-17.9,7c-0.7,0.1-1.5,0.1-2.3,0.2c-0.8,0-1.6,0.1-2.3,0.1h-10.9v20.1h11.1v11.8H285.6z    M310.7,55.6h4c0.1,0.1,0.2,0.1,0.4,0.1c0.2,0,0.4,0,0.6,0c0.2,0.1,0.5,0.1,0.8,0.1c0.3,0,0.7,0,1.1,0c1,0,2.3-0.1,3.7-0.2   c1.4-0.1,2.9-0.4,4.4-0.9c2.7-0.8,5.2-2.3,7.5-4.5c2.3-2.2,3.4-5.6,3.4-10.2c0-4.8-1.2-8.3-3.5-10.5c-2.3-2.2-4.9-3.7-7.7-4.5   c-1.4-0.4-2.9-0.7-4.3-0.8c-1.4-0.1-2.6-0.2-3.7-0.2c-0.4,0-0.8,0-1.1,0c-0.3,0-0.6,0-0.8,0c-0.3,0.1-0.6,0.1-0.7,0.1   c-0.2,0-0.3,0-0.5,0l-3.6-0.1V55.6z"></path>		<path fill="#00295D" d="M412.2,100.5c-1.4,0.3-2.7,0.5-4.2,0.7c-1.4,0.1-2.8,0.2-4.3,0.2c-11.9,0-21.3-3.2-28.3-9.6   c-7-6.4-11.9-13.5-14.6-21.2c-0.9-2.6-1.5-5.1-2-7.6c-0.4-2.5-0.7-5-0.7-7.3c0-12.3,4.3-22.8,13-31.6c8.7-8.8,19.5-13.2,32.6-13.2   c13.2,0,24.1,4.4,32.7,13.2c8.7,8.8,13,19.4,13,31.6c0,9.1-2.3,17.3-6.8,24.4c-4.5,7.1-10.4,12.5-17.5,16.2l2.3,4.5h12.3v13.7   h-20.6L412.2,100.5z M405.2,86.8l-4.5-8.8l11.7-6.9l5.9,11.7c4.7-2.5,8.5-5.9,11.3-10.3c2.8-4.4,4.2-10,4.2-16.8   c0-8.3-2.8-15.5-8.5-21.5c-5.7-6-12.7-9-21.1-9c-9.5,0-17,3-22.4,9c-5.4,6-8.1,13.1-8.1,21.5c0,9.8,2.8,17.5,8.5,23   c5.7,5.6,12.5,8.4,20.6,8.4c0.4,0,0.8,0,1.2,0c0.4,0,0.8,0,1.1-0.1V86.8z"></path>		<path fill="#00295D" d="M500,92.2c-2.2,2.2-4.9,4.1-8,5.6c-3.1,1.5-6.2,2.4-9.4,2.7c-0.3,0.1-0.7,0.1-1,0.1c-0.4,0-0.7,0-1,0   c-5.3,0-9.5-1.2-12.6-3.7c-3.1-2.5-4.7-7.3-4.7-14.3V55.3h-7.7V43.8H477v34.1c0,4.3,0.5,7.2,1.6,8.8c1,1.6,3.3,2.5,6.7,2.5   c0.6,0,1.5-0.1,2.8-0.3c1.3-0.2,2.6-0.7,4.1-1.4c1.8-1,3.4-2.5,4.9-4.6c1.5-2.1,2.3-5.2,2.3-9.2V55.3h-8.5V43.8h22.4V88h7.9v11.4   H500V92.2z"></path>		<path fill="#00295D" d="M582.2,88h8.8v11.4h-20.1v-8.1h-0.2c-2,2.8-4.6,5.1-7.9,6.7c-3.2,1.7-6.7,2.5-10.4,2.5   c-7.3,0-13.7-2.6-19.3-7.9c-5.5-5.3-8.3-12.3-8.3-21c0-8.7,2.8-15.8,8.3-21.1c5.5-5.3,12-7.9,19.3-7.9c3.5,0,6.9,0.8,10,2.5   c3.2,1.6,5.9,4,8.1,7l0.4-0.1v-8.3H591v11.4h-8.8V88z M566.2,83.8c2.4-3.6,3.5-7.7,3.5-12.4c0-4.5-1.2-8.5-3.5-11.9   c-2.4-3.4-6.2-5.2-11.6-5.2c-5.3,0-9.3,1.7-11.9,5.2c-2.6,3.4-4,7.4-4,11.9c0,4.6,1.3,8.8,4,12.3c2.6,3.6,6.6,5.4,11.9,5.4   C559.9,89.2,563.8,87.4,566.2,83.8z"></path>		<path fill="#00295D" d="M596.8,99.4V88h8.4V24h-8.4V12.5h22.3V88h8.4v11.4H596.8z"></path>		<path fill="#00295D" d="M633.5,43.8h22.3V88h8.4v11.4h-30.4V88h8.2V55.3h-8.4V43.8z M655.8,34.1h-19.1V19.2h19.1V34.1z"></path>	</g>	<circle fill="#00295D" cx="105.6" cy="83.7" r="35.9"></circle>	<path fill="#330065" d="M38.9,134.2c18.2,24.1,48.9,37.4,80.7,32c45.6-7.7,76.2-50.9,68.5-96.4c-2.9-17.4-11.1-32.7-22.5-44.4  l-19.4,27.2c6.6,8.6,10.6,19.4,10.6,31.2c0,28.2-22.9,51.1-51.1,51.1c-20.5,0-38.1-12-46.3-29.4L38.9,134.2z"></path>	<path fill="#330065" d="M0,87.9l37.4-52.6C49.8,17.8,68.9,5,91.6,1.2c18.9-3.2,37.3,0.2,53,8.5l-19.1,26.9c-6.1-2.6-12.8-4-19.9-4  c-17.4,0-32.8,8.7-42,22l-42.8,60.1L0,87.9z"></path></g></svg>